# Blender v2.90.0 OBJ File: 'Muros.blend'
# www.blender.org
mtllib Marco_Puerta_Principal.mtl
o Marco.001_Plane.008_Plane.002
v -0.261700 8.929620 26.237255
v 0.023501 9.173313 26.237255
v -5.048919 9.173312 26.990047
v 0.023502 9.173313 26.990044
v -4.763717 8.929620 26.990046
v -0.261699 8.929620 26.990046
v -4.763717 8.929620 26.990046
v -4.763718 8.929620 26.237257
v -0.261699 8.929620 26.990046
v -5.048919 9.173312 26.237257
v -5.048918 0.013529 26.990046
v -4.763717 0.013530 26.990046
v -4.763717 0.013530 26.990046
v -4.763718 0.013530 26.237255
v -5.048918 0.013529 26.237255
v 0.023502 0.013529 26.237253
v -0.261700 0.013530 26.237255
v 0.023502 0.013530 26.990044
v -0.261699 0.013530 26.990044
v -0.261699 0.013530 26.990044
vt -1.080050 0.830856
vt -1.272340 0.830856
vt -1.272342 0.518536
vt -1.080052 0.510000
vt 2.147608 0.518536
vt -0.887761 0.518536
vt -1.080050 0.510000
vt 2.339898 0.510000
vt 2.147609 0.830856
vt 2.339898 0.830856
vt -4.500000 0.510000
vt -4.500000 0.510000
vt -4.500000 0.510000
vt -4.500000 0.510000
vt -4.307711 0.518536
vt -4.500000 0.510000
vt -4.500000 0.988556
vt -4.500000 0.830856
vt -3.709975 0.830856
vt -3.709975 0.988556
vt -4.307709 0.830856
vt -4.499998 0.830856
vt 4.709974 0.822319
vt 3.919950 0.822319
vt 3.919950 0.510000
vt 4.709975 0.510000
vt 4.709975 0.510000
vt 4.709974 0.822319
vt -0.887760 0.830856
vt -1.080050 0.830856
vt 4.709974 0.822319
vt 4.709974 1.000000
vt 3.919950 1.000000
vt 3.919950 0.822319
vt 3.129923 0.510000
vt 3.129925 0.830856
vt 4.709975 0.510000
vt 5.500000 0.510000
vt 5.500000 0.822320
vt 4.709975 0.822320
vt 4.709975 0.822320
vt 4.709975 0.510000
vt 3.919949 0.510000
vt 3.919950 0.830856
vt 3.129925 0.830856
vt 3.129924 0.510000
vn -0.0000 0.0000 -1.0000
vn -0.0777 -0.0002 0.9970
vn 0.0777 -0.0035 0.9970
vn 0.0000 -0.0000 1.0000
vn 0.7071 -0.0000 0.7071
vn -0.7071 -0.0000 0.7071
vn 0.0000 -1.0000 0.0000
vn -1.0000 -0.0000 0.0000
vn -0.0000 1.0000 0.0000
vn 1.0000 0.0000 -0.0000
usemtl Puerta
s 1
f 16/1/1 17/2/1 1/3/1 2/4/1
f 5/5/2 6/6/3 4/7/4 3/8/4
f 12/9/5 5/5/2 3/8/4 11/10/4
f 6/11/3 5/12/2 7/13/5 9/14/6
f 2/4/1 1/3/1 8/15/1 10/16/1
f 9/17/7 7/18/7 8/19/7 1/20/7
f 10/16/1 8/15/1 14/21/1 15/22/1
f 9/23/6 1/24/8 17/25/8 20/26/8 19/27/4 6/28/3
f 6/6/3 19/29/4 18/30/4 4/7/4
f 3/31/9 4/32/9 2/33/9 10/34/9
f 3/8/8 10/35/8 15/36/8 11/10/8
f 13/37/10 14/38/10 8/39/10 7/40/5 5/41/2 12/42/5
f 16/43/10 2/44/10 4/45/10 18/46/10
o Marco.002_Plane.008_Plane.001
v -6.404815 8.929620 -9.868981
v -6.404815 9.173313 -9.615363
v -7.157607 9.173312 -14.126068
v -7.157605 9.173313 -9.615362
v -7.157607 8.929620 -13.872450
v -7.157605 8.929620 -9.868980
v -7.157607 8.929620 -13.872450
v -6.404817 8.929620 -13.872451
v -7.157605 8.929620 -9.868980
v -6.404817 9.173312 -14.126068
v -7.157606 0.013529 -14.126068
v -7.157606 0.013529 -13.872450
v -7.157606 0.013529 -13.872450
v -6.404816 0.013530 -13.872450
v -6.404816 0.013529 -14.126068
v -6.404814 0.013529 -9.615362
v -6.404814 0.013530 -9.868981
v -7.157603 0.013529 -9.615362
v -7.157604 0.013529 -9.868980
v -7.157604 0.013529 -9.868980
vt -1.080050 0.830856
vt -1.272340 0.830856
vt -1.272342 0.518536
vt -1.080052 0.510000
vt 2.147608 0.518536
vt -0.887761 0.518536
vt -1.080050 0.510000
vt 2.339898 0.510000
vt 2.147609 0.830856
vt 2.339898 0.830856
vt -4.500000 0.510000
vt -4.500000 0.510000
vt -4.500000 0.510000
vt -4.500000 0.510000
vt -4.307711 0.518536
vt -4.500000 0.510000
vt -4.500000 0.988556
vt -4.500000 0.830856
vt -3.709975 0.830856
vt -3.709975 0.988556
vt -4.307709 0.830856
vt -4.499998 0.830856
vt 4.709974 0.822319
vt 3.919950 0.822319
vt 3.919950 0.510000
vt 4.709975 0.510000
vt 4.709975 0.510000
vt 4.709974 0.822319
vt -0.887760 0.830856
vt -1.080050 0.830856
vt 4.709974 0.822319
vt 4.709974 1.000000
vt 3.919950 1.000000
vt 3.919950 0.822319
vt 3.129923 0.510000
vt 3.129925 0.830856
vt 4.709975 0.510000
vt 5.500000 0.510000
vt 5.500000 0.822320
vt 4.709975 0.822320
vt 4.709975 0.822320
vt 4.709975 0.510000
vt 3.919949 0.510000
vt 3.919950 0.830856
vt 3.129925 0.830856
vt 3.129924 0.510000
vn 1.0000 0.0000 -0.0000
vn -0.9634 -0.0002 0.2680
vn -0.9474 0.0103 0.3199
vn -1.0000 0.0000 0.0000
vn -0.7071 -0.0000 0.7071
vn 0.0000 0.0000 0.0000
vn 0.0000 -1.0000 0.0000
vn -0.0000 -0.0000 -1.0000
vn -0.0000 1.0000 -0.0000
vn 0.0000 0.0000 1.0000
usemtl Puerta
s 1
f 36/47/11 37/48/11 21/49/11 22/50/11
f 25/51/12 26/52/13 24/53/14 23/54/14
f 32/55/15 25/51/12 23/54/14 31/56/14
f 26/57/13 25/58/12 27/59/16 29/60/16
f 22/50/11 21/49/11 28/61/11 30/62/11
f 29/63/17 27/64/17 28/65/17 21/66/17
f 30/62/11 28/61/11 34/67/11 35/68/11
f 29/69/16 21/70/18 37/71/18 40/72/18 39/73/14 26/74/13
f 26/52/13 39/75/14 38/76/14 24/53/14
f 23/77/19 24/78/19 22/79/19 30/80/19
f 23/54/18 30/81/18 35/82/18 31/56/18
f 33/83/20 34/84/20 28/85/20 27/86/16 25/87/12 32/88/15
f 36/89/20 22/90/20 24/91/20 38/92/20
