# Blender v2.90.0 OBJ File: 'Muros.blend'
# www.blender.org
mtllib Pelota.mtl
o BeachBall
v 4.425336 1.053111 -31.310671
v 4.351110 1.246571 -31.182112
v 4.592875 1.246571 -30.940346
v 4.721435 1.053111 -31.014568
v 4.351112 -0.074464 -31.182112
v 4.425336 0.118999 -31.310671
v 4.721435 0.118999 -31.014568
v 4.592875 -0.074464 -30.940346
v 4.254381 1.395017 -31.014568
v 4.141735 1.488337 -30.819464
v 4.230228 1.488337 -30.730970
v 4.425336 1.395017 -30.843616
v 4.471994 0.344287 -31.391485
v 4.487908 0.586053 -31.419050
v 4.829818 0.586053 -31.077143
v 4.802253 0.344287 -31.061230
v 4.471994 0.827819 -31.391485
v 4.802253 0.827819 -31.061230
v 4.254381 -0.222911 -31.014568
v 4.425336 -0.222911 -30.843616
v 4.141735 -0.316228 -30.819464
v 4.230228 -0.316228 -30.730970
v 4.923134 0.827819 -30.610086
v 4.829818 1.053110 -30.610086
v 4.721435 1.053110 -30.205605
v 4.802253 0.827819 -30.158945
v 4.487908 -0.222911 -30.610086
v 4.681368 -0.074464 -30.610086
v 4.592875 -0.074464 -30.279831
v 4.425336 -0.222911 -30.376558
v 4.681368 1.246571 -30.610086
v 4.487908 1.395017 -30.610086
v 4.425336 1.395017 -30.376558
v 4.592875 1.246571 -30.279831
v 4.829818 0.118999 -30.610086
v 4.923134 0.344287 -30.610086
v 4.802253 0.344287 -30.158945
v 4.721435 0.118999 -30.205605
v 4.954965 0.586053 -30.610086
v 4.829818 0.586053 -30.143032
v 4.262619 -0.316228 -30.610086
v 4.230228 -0.316228 -30.489204
v 4.262619 1.488337 -30.610086
v 4.230228 1.488337 -30.489204
v 4.487908 0.586053 -29.801123
v 4.471994 0.827819 -29.828688
v 4.020854 0.827819 -29.707806
v 4.020854 0.586053 -29.675978
v 4.141735 -0.316228 -30.400711
v 4.254381 -0.222911 -30.205605
v 4.020854 -0.222911 -30.143032
v 4.020854 -0.316228 -30.368322
v 4.425336 1.053110 -29.909504
v 4.351110 1.246571 -30.038063
v 4.020854 1.246571 -29.949572
v 4.020854 1.053110 -29.801123
v 4.351112 -0.074464 -30.038065
v 4.425336 0.118999 -29.909504
v 4.020854 0.118999 -29.801123
v 4.020854 -0.074464 -29.949572
v 4.254381 1.395017 -30.205605
v 4.141735 1.488337 -30.400711
v 4.020854 1.488337 -30.368322
v 4.020854 1.395017 -30.143032
v 4.471994 0.344287 -29.828688
v 4.020854 0.344287 -29.707806
v 3.787326 1.395017 -30.205606
v 3.899969 1.488337 -30.400711
v 3.811479 1.488337 -30.489204
v 3.616371 1.395017 -30.376558
v 3.569713 0.344287 -29.828688
v 3.553796 0.586053 -29.801123
v 3.211889 0.586053 -30.143032
v 3.239454 0.344287 -30.158945
v 3.569713 0.827819 -29.828688
v 3.616371 1.053110 -29.909504
v 3.320269 1.053110 -30.205605
v 3.239454 0.827819 -30.158945
v 3.787326 -0.222911 -30.205605
v 3.690595 -0.074464 -30.038065
v 3.448829 -0.074464 -30.279831
v 3.616371 -0.222911 -30.376558
v 3.690595 1.246571 -30.038063
v 3.448829 1.246571 -30.279831
v 3.616371 0.118999 -29.909504
v 3.320269 0.118999 -30.205605
v 3.899969 -0.316228 -30.400711
v 3.811476 -0.316228 -30.489204
v 3.360336 1.246571 -30.610086
v 3.553796 1.395017 -30.610086
v 3.616371 1.395017 -30.843616
v 3.448829 1.246571 -30.940346
v 3.211889 0.118999 -30.610086
v 3.118570 0.344287 -30.610086
v 3.239454 0.344287 -31.061230
v 3.320269 0.118999 -31.014568
v 3.086742 0.586053 -30.610086
v 3.118570 0.827819 -30.610086
v 3.239454 0.827819 -31.061230
v 3.211889 0.586053 -31.077143
v 3.779088 -0.316228 -30.610086
v 3.553796 -0.222911 -30.610086
v 3.616371 -0.222911 -30.843616
v 3.811476 -0.316228 -30.730970
v 3.211889 1.053110 -30.610086
v 3.320269 1.053111 -31.014568
v 3.360336 -0.074464 -30.610086
v 3.448829 -0.074464 -30.940346
v 3.779088 1.488337 -30.610086
v 3.811479 1.488337 -30.730970
v 3.616371 1.053111 -31.310671
v 3.690595 1.246571 -31.182112
v 4.020854 1.246571 -31.270603
v 4.020854 1.053111 -31.419050
v 3.690595 -0.074464 -31.182112
v 3.616371 0.118999 -31.310671
v 4.020854 0.118999 -31.419050
v 4.020854 -0.074464 -31.270603
v 3.787326 1.395017 -31.014568
v 3.899969 1.488337 -30.819464
v 4.020854 1.488337 -30.851852
v 4.020854 1.395017 -31.077143
v 3.569713 0.344287 -31.391485
v 3.553796 0.586053 -31.419050
v 4.020854 0.586053 -31.544197
v 4.020854 0.344287 -31.512371
v 3.569713 0.827819 -31.391485
v 4.020854 0.827819 -31.512369
v 3.787326 -0.222911 -31.014568
v 4.020854 -0.222911 -31.077143
v 3.899969 -0.316228 -30.819464
v 4.020854 -0.316228 -30.851852
v 3.961858 -0.344583 -30.500002
v 3.914717 -0.344583 -30.675928
v 4.126987 -0.344583 -30.544247
v 4.079847 -0.344583 -30.720173
v 4.079847 1.512928 -30.720173
v 4.126987 1.512928 -30.544247
v 3.914717 1.512930 -30.675928
v 3.961858 1.512930 -30.500002
vt 0.095400 0.276748
vt 0.099068 0.178253
vt 0.131704 0.178253
vt 0.135371 0.276747
vt 0.180492 0.744132
vt 0.181542 0.829290
vt 0.147834 0.765181
vt 0.152970 0.691787
vt 0.103847 0.083860
vt 0.109413 0.000000
vt 0.121358 0.000000
vt 0.126924 0.083860
vt 0.093095 0.531054
vt 0.092309 0.459371
vt 0.138463 0.459371
vt 0.137677 0.531054
vt 0.093095 0.372632
vt 0.137677 0.372632
vt 0.181542 0.648943
vt 0.162080 0.611930
vt 0.184617 0.898614
vt 0.147021 0.827110
vt 0.184617 0.550212
vt 0.174543 0.531052
vt 0.091522 0.448153
vt 0.089217 0.534866
vt 0.049246 0.534865
vt 0.046941 0.448153
vt 0.080770 0.000000
vt 0.085550 0.069946
vt 0.052914 0.069945
vt 0.057693 0.000000
vt 0.214729 0.961243
vt 0.215496 0.872416
vt 0.236788 0.872416
vt 0.244840 0.961243
vt 0.089217 0.155893
vt 0.091522 0.251982
vt 0.046941 0.251982
vt 0.049246 0.155893
vt 0.092309 0.351667
vt 0.046155 0.351667
vt 0.147021 0.943186
vt 0.165029 0.898614
vt 0.165029 0.989852
vt 0.147021 0.990415
vt 0.085550 0.605894
vt 0.052914 0.605894
vt 0.219231 0.776827
vt 0.230252 0.776826
vt 0.184617 0.409263
vt 0.185404 0.353967
vt 0.229985 0.353968
vt 0.230772 0.409263
vt 0.084039 0.998050
vt 0.071287 0.914694
vt 0.087262 0.895027
vt 0.092309 0.987870
vt 0.187709 0.279920
vt 0.191377 0.192169
vt 0.224013 0.192170
vt 0.227680 0.279922
vt 0.062948 0.823734
vt 0.059592 0.731367
vt 0.087262 0.697302
vt 0.085541 0.795920
vt 0.196156 0.096695
vt 0.201722 0.000000
vt 0.213668 0.000000
vt 0.219233 0.096695
vt 0.032717 0.728425
vt 0.055800 0.716064
vt 0.055800 0.817322
vt 0.032717 0.826233
vt 0.061446 0.643888
vt 0.092309 0.605894
vt 0.219138 0.658935
vt 0.222214 0.757666
vt 0.212140 0.776826
vt 0.199677 0.695948
vt 0.183831 0.372631
vt 0.184617 0.459370
vt 0.138463 0.459370
vt 0.139250 0.372631
vt 0.222214 0.409263
vt 0.219138 0.478588
vt 0.185430 0.542697
vt 0.184617 0.480768
vt 0.173079 0.083859
vt 0.177858 0.178252
vt 0.145222 0.178252
vt 0.150002 0.083859
vt 0.218089 0.563746
vt 0.190566 0.616091
vt 0.181526 0.276748
vt 0.141555 0.276748
vt 0.183831 0.531052
vt 0.139250 0.531052
vt 0.167513 0.000000
vt 0.155567 0.000000
vt 0.006759 0.069945
vt 0.011539 0.000000
vt 0.034616 0.000000
vt 0.039395 0.069945
vt 0.003092 0.534864
vt 0.000786 0.448153
vt 0.045368 0.448153
vt 0.043063 0.534864
vt 0.000000 0.351666
vt 0.000786 0.251982
vt 0.045368 0.251982
vt 0.046155 0.351666
vt 0.210227 0.776826
vt 0.213962 0.872416
vt 0.192670 0.872416
vt 0.199206 0.776827
vt 0.003092 0.155892
vt 0.043063 0.155892
vt 0.006759 0.605895
vt 0.039395 0.605895
vt 0.050725 0.918037
vt 0.032717 0.873462
vt 0.032717 0.826233
vt 0.050725 0.826797
vt 0.214729 0.961243
vt 0.184617 0.961244
vt 0.000000 0.872578
vt 0.003356 0.780211
vt 0.025949 0.808025
vt 0.027671 0.906642
vt 0.131704 0.723223
vt 0.135371 0.810974
vt 0.095401 0.810974
vt 0.099068 0.723223
vt 0.011695 0.689250
vt 0.024447 0.605895
vt 0.032717 0.616075
vt 0.027670 0.708918
vt 0.137677 0.885020
vt 0.138463 0.940315
vt 0.092309 0.940315
vt 0.093095 0.885020
vt 0.001855 0.960056
vt 0.032717 0.998051
vt 0.126924 0.627747
vt 0.103847 0.627748
vt 0.032717 0.605895
vt 0.055800 0.618255
vt 0.055800 0.716064
vt 0.032717 0.707154
vt 0.121359 0.531054
vt 0.109413 0.531054
vt 0.292911 0.998051
vt 0.289561 0.849872
vt 0.354327 0.849872
vt 0.350977 0.998051
vt 0.288419 0.684991
vt 0.289561 0.514643
vt 0.354327 0.514643
vt 0.355469 0.684991
vt 0.460229 0.489070
vt 0.468315 0.648806
vt 0.434790 0.648805
vt 0.442875 0.489071
vt 0.292911 0.350438
vt 0.298238 0.203568
vt 0.345650 0.203568
vt 0.350977 0.350438
vt 0.475258 0.815617
vt 0.480585 0.978139
vt 0.422518 0.978139
vt 0.427846 0.815616
vt 0.305181 0.084041
vt 0.313267 0.000000
vt 0.330621 0.000000
vt 0.338706 0.084041
vt 0.380317 0.998050
vt 0.372231 0.914012
vt 0.405756 0.914011
vt 0.397670 0.998050
vt 0.422518 0.489070
vt 0.427846 0.326549
vt 0.475258 0.326550
vt 0.480585 0.489070
vt 0.365288 0.794484
vt 0.359960 0.647612
vt 0.418027 0.647612
vt 0.412699 0.794484
vt 0.434790 0.159737
vt 0.442875 0.000000
vt 0.460229 0.000001
vt 0.468314 0.159738
vt 0.356611 0.483409
vt 0.355469 0.313062
vt 0.422518 0.313062
vt 0.421376 0.483409
vt 0.356611 0.148181
vt 0.359960 0.000000
vt 0.418027 0.000000
vt 0.421376 0.148180
vt 0.918050 0.308089
vt 0.931971 0.355751
vt 0.913672 0.393341
vt 0.901975 0.308091
vt 0.940008 0.438303
vt 0.925369 0.513484
vt 0.940008 0.533628
vt 0.931971 0.616180
vt 0.894655 0.458448
vt 0.888054 0.355751
vt 0.906353 0.578590
vt 0.918049 0.663841
vt 0.880016 0.533627
vt 0.880016 0.438304
vt 0.888054 0.616180
vt 0.901975 0.663842
vt 0.925539 0.829596
vt 0.894485 0.829595
vt 0.875856 0.865779
vt 0.870921 0.998050
vt 0.827004 0.998050
vt 0.822069 0.865779
vt 0.870921 0.000000
vt 0.875856 0.160052
vt 0.822069 0.160052
vt 0.827004 0.000000
vt 0.954477 0.822263
vt 0.961967 0.652905
vt 0.978041 0.652907
vt 0.985531 0.822262
vt 0.878958 0.338990
vt 0.880016 0.524624
vt 0.817908 0.524624
vt 0.818966 0.338990
vt 0.878958 0.704302
vt 0.818966 0.704302
vt 0.931971 0.971932
vt 0.888054 0.971932
vt 0.948045 0.970508
vt 0.991962 0.970508
vt 0.894485 0.142336
vt 0.888054 0.000000
vt 0.931971 0.000000
vt 0.925539 0.142335
vt 0.991963 0.000001
vt 0.985531 0.136010
vt 0.954477 0.136011
vt 0.948046 0.000000
vt 0.813748 0.132273
vt 0.816850 0.293749
vt 0.756859 0.293749
vt 0.759961 0.132273
vt 0.817908 0.473427
vt 0.816850 0.659060
vt 0.756859 0.659060
vt 0.755800 0.473426
vt 0.813748 0.838001
vt 0.808813 0.998051
vt 0.764896 0.998051
vt 0.759961 0.838001
vt 0.808813 0.000000
vt 0.764896 0.000000
vt 0.978041 0.297677
vt 0.961967 0.297675
vt 0.973664 0.566766
vt 0.991962 0.605315
vt 0.985361 0.446800
vt 1.000000 0.522882
vt 0.991962 0.345267
vt 1.000000 0.427699
vt 0.948045 0.605314
vt 0.954647 0.501755
vt 0.966344 0.381788
vt 0.940008 0.522883
vt 0.940008 0.427698
vt 0.948046 0.345267
vt 0.629181 0.910257
vt 0.630524 0.834449
vt 0.648661 0.842022
vt 0.643990 0.916441
vt 0.548695 0.366450
vt 0.551707 0.287772
vt 0.557934 0.287772
vt 0.560725 0.366450
vt 0.631103 0.751728
vt 0.630878 0.667732
vt 0.651821 0.676477
vt 0.651332 0.760176
vt 0.629866 0.588184
vt 0.628136 0.518506
vt 0.646273 0.526079
vt 0.650096 0.596632
vt 0.627167 0.973985
vt 0.637638 0.978358
vt 0.545993 0.437044
vt 0.563005 0.437044
vt 0.562250 0.628082
vt 0.564272 0.559519
vt 0.574089 0.606287
vt 0.567331 0.652290
vt 0.543784 0.494746
vt 0.564619 0.494746
vt 0.683701 0.147469
vt 0.671823 0.155812
vt 0.669783 0.030562
vt 0.681425 0.007773
vt 0.550872 0.861225
vt 0.546172 0.930398
vt 0.532290 0.864259
vt 0.541056 0.814458
vt 0.562724 0.000000
vt 0.560526 0.057412
vt 0.548496 0.057413
vt 0.545711 0.000000
vt 0.717430 0.155811
vt 0.707309 0.147469
vt 0.705033 0.007773
vt 0.715390 0.030562
vt 0.695804 0.144624
vt 0.693449 0.000000
vt 0.555314 0.784257
vt 0.550232 0.760048
vt 0.660980 0.169081
vt 0.659314 0.066816
vt 0.541535 0.987059
vt 0.524532 0.906056
vt 0.557831 0.127803
vt 0.551604 0.127802
vn 0.5681 0.5955 -0.5681
vn 0.5681 -0.5954 -0.5681
vn 0.2787 0.9191 -0.2787
vn 0.7015 -0.1261 -0.7015
vn 0.6565 0.3715 -0.6565
vn 0.4398 -0.7830 -0.4398
vn 0.4398 0.7830 -0.4398
vn 0.6565 -0.3715 -0.6565
vn 0.7015 0.1261 -0.7015
vn 0.2787 -0.9191 -0.2787
vn 0.8968 0.3715 0.2403
vn 0.6008 -0.7830 0.1610
vn 0.6008 0.7830 0.1610
vn 0.8968 -0.3715 0.2403
vn 0.9582 0.1262 0.2568
vn 0.3807 -0.9191 0.1020
vn 0.7760 0.5955 0.2079
vn 0.7760 -0.5955 0.2079
vn 0.3807 0.9191 0.1020
vn 0.9582 -0.1262 0.2568
vn 0.2568 0.1261 0.9582
vn 0.1020 -0.9191 0.3807
vn 0.2079 0.5955 0.7760
vn 0.2079 -0.5955 0.7760
vn 0.1020 0.9191 0.3807
vn 0.2568 -0.1261 0.9582
vn 0.2403 0.3715 0.8968
vn 0.1610 -0.7830 0.6008
vn 0.1610 0.7830 0.6008
vn 0.2403 -0.3715 0.8968
vn -0.2787 0.9191 0.2787
vn -0.7015 -0.1262 0.7015
vn -0.6565 0.3715 0.6565
vn -0.4398 -0.7830 0.4398
vn -0.4398 0.7830 0.4398
vn -0.6565 -0.3715 0.6565
vn -0.7015 0.1262 0.7015
vn -0.2787 -0.9191 0.2787
vn -0.5681 0.5955 0.5681
vn -0.5681 -0.5955 0.5681
vn -0.6008 0.7830 -0.1610
vn -0.8968 -0.3715 -0.2403
vn -0.9582 0.1261 -0.2568
vn -0.3807 -0.9191 -0.1020
vn -0.7760 0.5955 -0.2079
vn -0.7760 -0.5955 -0.2079
vn -0.3807 0.9191 -0.1020
vn -0.9582 -0.1261 -0.2568
vn -0.8968 0.3715 -0.2403
vn -0.6008 -0.7830 -0.1610
vn -0.2079 0.5955 -0.7760
vn -0.2079 -0.5954 -0.7760
vn -0.1020 0.9191 -0.3807
vn -0.2568 -0.1261 -0.9582
vn -0.2403 0.3715 -0.8968
vn -0.1610 -0.7830 -0.6008
vn -0.1610 0.7830 -0.6008
vn -0.2403 -0.3715 -0.8968
vn -0.2568 0.1262 -0.9582
vn -0.1020 -0.9191 -0.3807
vn 0.8968 -0.3715 -0.2403
vn 0.9582 0.1262 -0.2567
vn 0.3807 -0.9191 -0.1020
vn 0.7760 0.5955 -0.2079
vn 0.7760 -0.5955 -0.2079
vn 0.3807 0.9191 -0.1020
vn 0.9582 -0.1262 -0.2567
vn 0.8968 0.3715 -0.2403
vn 0.6008 -0.7830 -0.1610
vn 0.6008 0.7830 -0.1610
vn -0.3807 -0.9191 0.1020
vn -0.7760 0.5955 0.2079
vn -0.7760 -0.5954 0.2079
vn -0.3807 0.9191 0.1020
vn -0.9582 -0.1261 0.2568
vn -0.8968 0.3715 0.2403
vn -0.6008 -0.7830 0.1610
vn -0.6008 0.7830 0.1610
vn -0.8968 -0.3715 0.2403
vn -0.9582 0.1261 0.2568
vn -0.1178 -0.9718 0.2041
vn -0.1817 -0.9821 0.0487
vn -0.2041 -0.9718 -0.1178
vn 0.0505 -0.9808 0.1886
vn 0.0000 -1.0000 0.0000
vn -0.0505 -0.9808 -0.1886
vn 0.2041 -0.9718 0.1178
vn 0.1817 -0.9821 -0.0487
vn 0.1178 -0.9718 -0.2041
vn 0.1020 -0.9191 -0.3807
vn 0.2079 0.5955 -0.7760
vn 0.2079 -0.5955 -0.7760
vn 0.1020 0.9191 -0.3807
vn 0.2568 -0.1261 -0.9582
vn 0.2403 0.3715 -0.8968
vn 0.1610 -0.7830 -0.6008
vn 0.1610 0.7830 -0.6008
vn 0.2403 -0.3715 -0.8968
vn 0.2568 0.1261 -0.9582
vn -0.1610 -0.7830 0.6008
vn -0.1610 0.7830 0.6008
vn -0.2403 -0.3715 0.8968
vn -0.2568 0.1261 0.9582
vn -0.1020 -0.9191 0.3807
vn -0.2079 0.5955 0.7760
vn -0.2079 -0.5955 0.7760
vn -0.1020 0.9191 0.3807
vn -0.2568 -0.1261 0.9582
vn -0.2403 0.3715 0.8968
vn 0.1029 0.9786 -0.1782
vn 0.1583 0.9865 -0.0424
vn 0.1782 0.9786 0.1029
vn -0.0440 0.9854 -0.1643
vn 0.0000 1.0000 -0.0000
vn 0.0440 0.9854 0.1643
vn -0.1782 0.9786 -0.1029
vn -0.1583 0.9865 0.0424
vn -0.1029 0.9786 0.1782
vn 0.5681 -0.5955 0.5681
vn 0.2787 0.9191 0.2787
vn 0.7015 -0.1261 0.7015
vn 0.6565 0.3715 0.6565
vn 0.4398 -0.7830 0.4398
vn 0.4398 0.7830 0.4398
vn 0.6565 -0.3715 0.6565
vn 0.7015 0.1261 0.7015
vn 0.2787 -0.9191 0.2787
vn 0.5681 0.5955 0.5681
vn -0.6565 0.3715 -0.6565
vn -0.4398 -0.7830 -0.4398
vn -0.4398 0.7830 -0.4398
vn -0.6565 -0.3715 -0.6565
vn -0.7015 0.1262 -0.7015
vn -0.2787 -0.9191 -0.2787
vn -0.5681 0.5955 -0.5681
vn -0.5681 -0.5954 -0.5681
vn -0.2787 0.9191 -0.2787
vn -0.7015 -0.1262 -0.7015
usemtl BeachBallWhite
s 1
f 1/1/1 2/2/1 3/3/1 4/4/1
f 5/5/2 6/6/2 7/7/2 8/8/2
f 9/9/3 10/10/3 11/11/3 12/12/3
f 13/13/4 14/14/4 15/15/4 16/16/4
f 17/17/5 1/1/5 4/4/5 18/18/5
f 19/19/6 5/5/6 8/8/6 20/20/6
f 2/2/7 9/9/7 12/12/7 3/3/7
f 6/6/8 13/21/8 16/22/8 7/7/8
f 14/14/9 17/17/9 18/18/9 15/15/9
f 21/23/10 19/19/10 20/20/10 22/24/10
f 23/25/11 24/26/11 25/27/11 26/28/11
f 27/29/12 28/30/12 29/31/12 30/32/12
f 31/33/13 32/34/13 33/35/13 34/36/13
f 35/37/14 36/38/14 37/39/14 38/40/14
f 39/41/15 23/25/15 26/28/15 40/42/15
f 41/43/16 27/44/16 30/45/16 42/46/16
f 24/26/17 31/47/17 34/48/17 25/27/17
f 28/30/18 35/37/18 38/40/18 29/31/18
f 32/34/19 43/49/19 44/50/19 33/35/19
f 36/38/20 39/41/20 40/42/20 37/39/20
f 45/51/21 46/52/21 47/53/21 48/54/21
f 49/55/22 50/56/22 51/57/22 52/58/22
f 53/59/23 54/60/23 55/61/23 56/62/23
f 57/63/24 58/64/24 59/65/24 60/66/24
f 61/67/25 62/68/25 63/69/25 64/70/25
f 65/71/26 45/72/26 48/73/26 66/74/26
f 46/52/27 53/59/27 56/62/27 47/53/27
f 50/56/28 57/63/28 60/66/28 51/57/28
f 54/60/29 61/67/29 64/70/29 55/61/29
f 58/64/30 65/75/30 66/76/30 59/65/30
f 67/77/31 68/78/31 69/79/31 70/80/31
f 71/81/32 72/82/32 73/83/32 74/84/32
f 75/85/33 76/86/33 77/87/33 78/88/33
f 79/89/34 80/90/34 81/91/34 82/92/34
f 83/93/35 67/77/35 70/80/35 84/94/35
f 85/95/36 71/81/36 74/84/36 86/96/36
f 72/82/37 75/97/37 78/98/37 73/83/37
f 87/99/38 79/89/38 82/92/38 88/100/38
f 76/86/39 83/93/39 84/94/39 77/87/39
f 80/90/40 85/95/40 86/96/40 81/91/40
f 89/101/41 90/102/41 91/103/41 92/104/41
f 93/105/42 94/106/42 95/107/42 96/108/42
f 97/109/43 98/110/43 99/111/43 100/112/43
f 101/113/44 102/114/44 103/115/44 104/116/44
f 105/117/45 89/101/45 92/104/45 106/118/45
f 107/119/46 93/105/46 96/108/46 108/120/46
f 90/121/47 109/122/47 110/123/47 91/124/47
f 94/106/48 97/109/48 100/112/48 95/107/48
f 98/110/49 105/117/49 106/118/49 99/111/49
f 102/114/50 107/125/50 108/126/50 103/115/50
f 111/127/51 112/128/51 113/129/51 114/130/51
f 115/131/52 116/132/52 117/133/52 118/134/52
f 119/135/53 120/136/53 121/137/53 122/138/53
f 123/139/54 124/140/54 125/141/54 126/142/54
f 127/143/55 111/127/55 114/130/55 128/144/55
f 129/145/56 115/131/56 118/134/56 130/146/56
f 112/128/57 119/135/57 122/138/57 113/129/57
f 116/132/58 123/139/58 126/142/58 117/133/58
f 124/147/59 127/148/59 128/149/59 125/150/59
f 131/151/60 129/145/60 130/146/60 132/152/60
f 7/153/61 16/154/61 36/155/61 35/156/61
f 15/157/62 18/158/62 23/159/62 39/160/62
f 22/161/63 20/162/63 27/163/63 41/164/63
f 4/165/64 3/166/64 31/167/64 24/168/64
f 8/169/65 7/170/65 35/171/65 28/172/65
f 12/173/66 11/174/66 43/175/66 32/176/66
f 16/154/67 15/157/67 39/160/67 36/155/67
f 18/158/68 4/165/68 24/168/68 23/159/68
f 20/162/69 8/169/69 28/172/69 27/163/69
f 3/166/70 12/173/70 32/176/70 31/167/70
f 88/177/71 82/178/71 102/179/71 101/180/71
f 77/181/72 84/182/72 89/183/72 105/184/72
f 81/185/73 86/186/73 93/187/73 107/188/73
f 70/189/74 69/190/74 109/191/74 90/192/74
f 74/193/75 73/194/75 97/195/75 94/196/75
f 78/197/76 77/198/76 105/199/76 98/200/76
f 82/178/77 81/185/77 107/188/77 102/179/77
f 84/182/78 70/189/78 90/192/78 89/183/78
f 86/186/79 74/193/79 94/196/79 93/187/79
f 73/194/80 78/197/80 98/200/80 97/195/80
f 87/201/81 88/202/81 133/203/81 52/204/81
f 88/202/82 101/205/82 134/206/82 133/203/82
f 101/205/83 104/207/83 131/208/83 134/206/83
f 52/204/84 133/203/84 135/209/84 49/210/84
f 133/203/85 134/206/85 136/211/85 135/209/85
f 134/206/86 131/208/86 132/212/86 136/211/86
f 49/210/87 135/209/87 41/213/87 42/214/87
f 135/209/88 136/211/88 22/215/88 41/213/88
f 136/211/89 132/212/89 21/216/89 22/215/89
f 132/212/90 130/217/90 19/218/90 21/216/90
f 114/219/91 113/220/91 2/221/91 1/222/91
f 118/223/92 117/224/92 6/225/92 5/226/92
f 122/227/93 121/228/93 10/229/93 9/230/93
f 126/231/94 125/232/94 14/233/94 13/234/94
f 128/235/95 114/219/95 1/222/95 17/236/95
f 130/217/96 118/237/96 5/238/96 19/218/96
f 113/239/97 122/227/97 9/230/97 2/240/97
f 117/224/98 126/231/98 13/234/98 6/225/98
f 125/232/99 128/235/99 17/236/99 14/233/99
f 51/241/100 60/242/100 80/243/100 79/244/100
f 55/245/101 64/246/101 67/247/101 83/248/101
f 59/249/102 66/250/102 71/251/102 85/252/102
f 48/253/103 47/254/103 75/255/103 72/256/103
f 52/204/104 51/241/104 79/244/104 87/201/104
f 56/257/105 55/258/105 83/259/105 76/260/105
f 60/261/106 59/249/106 85/252/106 80/262/106
f 64/246/107 63/263/107 68/264/107 67/247/107
f 66/250/108 48/253/108 72/256/108 71/251/108
f 47/254/109 56/257/109 76/260/109 75/255/109
f 121/228/110 137/265/110 11/266/110 10/229/110
f 137/265/111 138/267/111 43/268/111 11/266/111
f 138/267/112 62/269/112 44/270/112 43/268/112
f 120/271/113 139/272/113 137/265/113 121/228/113
f 139/272/114 140/273/114 138/267/114 137/265/114
f 140/273/115 63/263/115 62/269/115 138/267/115
f 110/274/116 109/275/116 139/272/116 120/271/116
f 109/275/117 69/276/117 140/273/117 139/272/117
f 69/276/118 68/264/118 63/263/118 140/273/118
f 29/277/119 38/278/119 58/279/119 57/280/119
f 33/281/120 44/282/120 62/283/120 61/284/120
f 37/285/121 40/286/121 45/287/121 65/288/121
f 26/289/122 25/290/122 53/291/122 46/292/122
f 30/293/123 29/277/123 57/280/123 50/294/123
f 34/295/124 33/281/124 61/284/124 54/296/124
f 38/278/125 37/285/125 65/288/125 58/279/125
f 40/286/126 26/289/126 46/292/126 45/287/126
f 42/297/127 30/298/127 50/299/127 49/300/127
f 25/301/128 34/295/128 54/296/128 53/302/128
f 99/303/129 106/304/129 111/305/129 127/306/129
f 103/307/130 108/308/130 115/309/130 129/310/130
f 92/311/131 91/312/131 119/313/131 112/314/131
f 96/315/132 95/316/132 123/317/132 116/318/132
f 100/319/133 99/303/133 127/306/133 124/320/133
f 104/321/134 103/307/134 129/310/134 131/322/134
f 106/304/135 92/323/135 112/324/135 111/305/135
f 108/308/136 96/325/136 116/326/136 115/309/136
f 91/312/137 110/327/137 120/328/137 119/313/137
f 95/316/138 100/319/138 124/320/138 123/317/138
